/* XPM */
static char *dc2fbd9b92ef44e693136b600c09ee66fJljPwwJjDgniioq[] = {
/* columns rows colors chars-per-pixel */
"64 64 177 2 ",
"   c #950102",
".  c #9B0104",
"X  c #9E0508",
"o  c #A40106",
"O  c #AD0107",
"+  c #A50409",
"@  c #AD010B",
"#  c #B50007",
"$  c #B80007",
"%  c #B5020A",
"&  c #BB030C",
"*  c #BD080F",
"=  c #B60311",
"-  c #BC0411",
";  c #BE0911",
":  c #C1050E",
">  c #C4080F",
",  c #C30513",
"<  c #C80513",
"1  c #C30B13",
"2  c #C90C14",
"3  c #C50618",
"4  c #C50C19",
"5  c #CB0D1B",
"6  c #C51017",
"7  c #CA1116",
"8  c #C71119",
"9  c #CC141A",
"0  c #CE181C",
"q  c #D1151D",
"w  c #D2191E",
"e  c #CB0F20",
"r  c #CD1222",
"t  c #CF1A21",
"y  c #D41523",
"u  c #D51D22",
"i  c #DA1D24",
"p  c #D61729",
"a  c #D71A29",
"s  c #D91D2B",
"d  c #DC1F30",
"f  c #D62125",
"g  c #D92226",
"h  c #DA242A",
"j  c #DD2A2E",
"k  c #DE2432",
"l  c #DD2D32",
"z  c #DE2D39",
"x  c #DD3335",
"c  c #DC3837",
"v  c #DF3539",
"b  c #DE3B3B",
"n  c #E0262D",
"m  c #E1292F",
"M  c #E02636",
"N  c #E22C33",
"B  c #E22A39",
"V  c #E33335",
"C  c #E3353A",
"Z  c #E9363B",
"A  c #E33A3C",
"S  c #EA3A3D",
"D  c #E53641",
"F  c #E53C43",
"G  c #EA3D44",
"H  c #E53D48",
"J  c #EA3E49",
"K  c #DF4140",
"L  c #E44344",
"P  c #EB4345",
"I  c #E34846",
"U  c #E6454A",
"Y  c #EC454B",
"T  c #E5494A",
"R  c #EB494D",
"E  c #F1444D",
"W  c #F14B4F",
"Q  c #F04A4E",
"!  c #F34A4F",
"~  c #F2494E",
"^  c #E54350",
"/  c #E74552",
"(  c #EB4350",
")  c #E84351",
"_  c #EA4450",
"`  c #EB4551",
"'  c #EA4553",
"]  c #EB4553",
"[  c #E84653",
"{  c #EC4451",
"}  c #ED4751",
"|  c #ED4753",
" . c #EE4751",
".. c #E94754",
"X. c #EB4654",
"o. c #EC4755",
"O. c #ED4950",
"+. c #EF4850",
"@. c #EC4B50",
"#. c #EF4A50",
"$. c #EE4B50",
"%. c #EE4A51",
"&. c #EC4853",
"*. c #EE4852",
"=. c #EF4852",
"-. c #EF4953",
";. c #EF4B52",
":. c #E94D51",
">. c #E84C50",
",. c #EB4C50",
"<. c #EA4E52",
"1. c #EB4F53",
"2. c #ED4D51",
"3. c #EF4C51",
"4. c #EF4F51",
"5. c #EE4D53",
"6. c #EE4D52",
"7. c #ED4E52",
"8. c #EC4D52",
"9. c #EA4855",
"0. c #EB4956",
"q. c #ED4954",
"w. c #EF4955",
"e. c #ED4856",
"r. c #EC4A57",
"t. c #EF4B56",
"y. c #EE4957",
"u. c #EF4E54",
"i. c #ED4B58",
"p. c #EE4C59",
"a. c #F14752",
"s. c #F04951",
"d. c #F04950",
"f. c #F24950",
"g. c #F24851",
"h. c #F14A51",
"j. c #F04B51",
"k. c #F34A51",
"l. c #F04953",
"z. c #F14A52",
"x. c #F24B52",
"c. c #F44B50",
"v. c #F44B52",
"b. c #F44A53",
"n. c #F14D50",
"m. c #F34D51",
"M. c #F24C50",
"N. c #F04D52",
"B. c #F14C52",
"V. c #F34C53",
"C. c #F24D53",
"Z. c #F04A54",
"A. c #F14A54",
"S. c #F04A56",
"D. c #F54B54",
"F. c #F14D54",
"G. c #F34E55",
"H. c #F34D57",
"J. c #F04F55",
"K. c #F44D55",
"L. c #F44D54",
"P. c #F54E55",
"I. c #F44D57",
"U. c #F74D56",
"Y. c #F64F56",
"T. c #F84E57",
"R. c #F14D58",
"E. c #F34D59",
"W. c #EC5054",
"Q. c #EF5055",
"!. c #F05156",
"~. c #F75155",
"^. c #F75057",
"/. c #F75259",
"(. c #F15559",
"). c #F5545A",
"_. c #F8535A",
/* pixels */
"R U U U T R R R P Y O.M.G.K.K.T.c.c.~.m.M.4.I R 4.4.T 4.R R W M.4.O.5.(.!.W.1.:.(.(.).(._./.T.U.D.K.I.I.E.G.E.E.E.w.r.......r.r.",
"@.R U U P R R U Y O.! j.j.j.K.^.c.c.~.M.4.Q 4.4.T R T T R R W 4.O.5.5.5.5.W.1.>.>.:.5.G.G.K.D.k.A.j.A.A.A.w.w.S.w.9.X.X...r.r.r.",
"4.R T U P R R R R R ! R R ! m.^.m.m.M.M.4.4.I I T T T T T R R R R O.4.4.5.:.>.T U T R O.O.j.g.k.j.Y a.a. .a.|  .@.X.| | 9...r.r.",
"!.W T T T R P T O.M.W ! ~ R W m.P W W 4.P 4.4.I T T T T T P R R Y O.O.@.@.@.T >.U U R ` j.j.g.! a.a.j.j.j.w.A.A.i.A.i.e.X.^ ^ ^ ",
"W R R P T R R P R ~ ! ! ~ E P ~ M.W P W I 4.I I T I T I T T R R Y Y R U U T T U U U U Y Y E E ! E a.E a.Y j. . .w.w.w.| X.^ ^ H ",
"W R T P P P P R P R Q ! E P P P P P P I P I I I I I T I T T T R Y U U P Y U U U U U L P P J E G E Y a.Y Y Y Y { { ` ` { X...X.X.",
"R T P L P P P P P P P P P P P P P I S I I I I I I I I I I I P I U P L U L L U U L F F F G P P E E E Y E E Y E Y ) Y ) ) ) { X.| ",
"P P L P P R R P P P P P S P P E I S I S I S I K I I K K I I I P P L G P L L U U K F A G G P E ~ E E E E a.a.E a.a. .' J J U ) X.",
"Q P I S S L P P P P S P S P G P I I I I S I I I I I I K K c S I G F F K F F H F F H F F G G J G J E J E E E E E E Y { { J H H H ",
"P P P K A S S P P S P S P S G S S S S S c c K K c I c K c c K I F F F b b H K K K b A D G G G G J E J E J E E E J Y J J J H H H ",
"P P S A A A A S S S P P S S Z S V V c S c c c c c I c c c I S c F A A C b b b b v b v C C D Z Z J G G J J J J J J J J J H H D H ",
"P S S A A A A A Z S S S G S V V V S S S S K K S c c c c c S c S A v A v v v b c b v b C Z Z S G G G G G J J J G J G G G H H H D ",
"P P S A A V V V S S S S S S Z V S S S S S S S c c c c V c c V V C C A x v v c v v v c v v C Z Z S G Z G D D D D D D D H D D J H ",
"S S A A V V V A V Z S S S S Z Z S S S S S S S V c c c c V c V c C A A x x x x x x x x z V B C Z Z Z Z Z C C C D D D D D D D D D ",
"S A V V V V V V V V V V V Z Z Z S S S S S c V c V c V V c V V V A V x x x x l x l x l l z V B B N Z B B C C B C D C D B b D z z ",
"V A V V V V V V V V V V V Z Z S S S S S S S c V V V c V V j V V V z x z l l l x l l x l l N V V Z N Z N B V B B C B D D z z z z ",
"V V V V V V V V V V m V V V A A Z Z V S S S S S V V V V V V V V l l j l j x x j j j j j j l l l N N N N l k B N B z l M B B B B ",
"m m m m m m m V V V V m l l V V S Z Z Z Z V V V V V V V V V j V l j l j l j j x f j j j j j x x M B M N M l N B B M M M B B B B ",
"m m m m m m m m l l j j m l V V V V Z Z S Z Z V V V V V V m j j l j j j j j j j j j j j j l l j N M n n k j k k M M M N B B B k ",
"m m m m V m m V m m j m j j j l V V Z Z Z Z V V V V m j j j j j j l j j j j j l j f j j j j j j M n M M k j k k M k M M B B k k ",
"V V m m m m m V n j j j j j l l V V V V V m V m c j j j j j g j j j j j l f l l j f j j h j j j n n h d h k d k z k k M B B k d ",
"m m m m m m m m j j j j j l l j V V V j n n g g f j f f f f j g j j j f f l f h f j j f h h f h h n h h h s k h d d k k B M k d ",
"m m m n n n m m n j m j j m j j V m j j f f f f f f f f f f g m j j h f h f f j j f f j h h h h s d s s s s s s d k d z B k d d ",
"m m m n n n n n j m g j j j h h g g 0 f 0 w f f f 0 f f f f g m j j j j f j f f f f j f h f h f h s h s s i s h k d k d M z d d ",
"n n n n n i i i m n n n j j h h g g f g f f f f f f f f f f f g f h h h h f f f f f f f f h f f a a s h s s s s a d d d k k k d ",
"n n n n i n n n g g g g h g g f g f f f f f 0 f f f f f f f f g f f f h f h h f f f f f f s f u a a i g i s s a s d s k d k d p ",
"n n n n n i i i u g f f f f f u f f f f f f i i f f f f f f g i f f f h h h f h g g f f u u u u u a a a s i s i a d s a d d a p ",
"i i n i i i i i u u f f u f w u 0 0 f 0 0 f 0 f f f f 0 f f g f f u f f i f h f g f u u t u 0 0 u w u u a a a a a d s a a d d r ",
"i i i i i i i i u w w i w u u u 0 0 w w w f f i f i f i 0 f f f u f a f a f f i f u u w w 9 9 9 0 y y y y i y p p a p p a d d p ",
"i i i i i q q q w u w w w u u i 0 0 w w w w f w f 0 f 0 0 f f f w w f i f f f u u u w 0 9 9 9 q 9 r q y y y y p y p p p a d d p ",
"i i i q q q q i u w w 0 w 0 0 w 0 w w w w w i f i i 0 i f 0 i f f u u u u u u w u w 0 9 7 9 2 9 5 5 q y y y y y y p p p p d p r ",
"i q q i q q q q w w 0 0 0 0 0 0 w w w w i w w w i 0 i 0 i i i 0 u f u u u u u w w 0 9 7 7 7 9 9 5 q 5 q y y y y y p p p p p r r ",
"y i q q q 7 7 q 0 0 0 0 0 7 7 0 q q q q w q w 9 w w 0 0 0 0 0 w w a h f f t t t 0 8 6 8 0 0 9 8 9 q 5 q q q y y r y y y e r r r ",
"y q i q q q 7 q 0 0 0 7 0 7 0 7 w q q q w q q w w w 0 0 0 0 0 0 0 0 t t t t t e 8 8 6 8 8 8 9 8 5 5 5 5 5 5 q r 5 r e y e e r r ",
"y i q q 2 2 q 2 7 0 0 0 0 0 0 0 w q q q 7 q q w w w 0 7 7 7 7 0 0 9 t 9 9 t 8 9 8 8 6 6 8 t 8 8 5 5 5 < 5 5 5 e 5 e e e e e e r ",
"q q i q q 2 2 2 7 7 0 0 0 7 0 0 q q 7 q 7 7 9 q w w 0 7 7 7 7 6 6 6 8 6 ; ; 8 8 6 6 6 6 8 9 8 8 4 2 2 5 5 5 5 5 3 5 5 5 e e e e ",
"q y y q 2 < 2 2 7 7 7 0 q 0 7 0 q 7 7 2 7 7 9 9 9 7 7 6 6 6 * * ; 6 6 6 ; ; 9 8 6 6 6 6 6 6 6 6 4 2 4 4 4 2 5 5 5 e e 5 3 3 e e ",
"q y q q q 2 2 2 7 7 7 7 7 2 7 2 7 7 7 2 > 2 7 7 7 2 7 1 > ; * * 6 6 ; 6 8 ; ; ; * 6 ; 6 ; ; 6 6 1 4 1 4 4 4 4 4 3 3 5 5 3 e e 3 ",
"< y q q 2 2 2 2 7 2 > 2 > 2 2 2 > 2 > 2 1 6 1 6 6 > > > * * * * * ; 6 ; * * ; ; * * 6 ; * * 6 ; 1 1 1 1 1 1 1 4 5 4 5 3 3 3 3 3 ",
"q < q q q 2 2 > 2 7 > > > : : 2 > > 2 > 1 6 > 1 * 6 ; ; * * & & * ; ; ; * * * * & * * 1 * * * 6 1 1 1 ; , ; , 1 4 4 3 3 , , , 3 ",
"q y y 5 5 5 < 1 < 1 2 2 2 2 > > 2 7 1 2 1 1 1 : * : ; * * * & * ; ; ; * * * * * * ; * ; * 1 * * ; 1 , 1 1 4 4 4 4 3 3 ; - - e - ",
"5 5 5 5 2 < , , > 1 > > > > > > 2 2 1 1 1 : ; > 1 * * ; * * * * ; * * * * * & * * * ; ; * * * ; , ; 1 ; 1 1 4 4 4 3 3 - - 3 - - ",
"5 r r 5 3 , & * , : : : : > > > 2 1 1 1 1 ; 1 ; ; ; ; - ; * * * * * * * * # * & * * * * * * * 1 1 , , 1 ; , 1 4 ; ; ; - - 3 - 3 ",
"< 5 5 5 1 ; & & * : & : : > > 1 > : 1 1 - , * * = * * - * = % = # * * # * # % * * * & * * * 6 * 4 4 , 1 , 1 , , 3 - - - = = = = ",
"8 e 8 8 ; ; = ; , * * : * 1 1 1 1 , - , * - * & - % * % % % % % * # # * # & & # # * * # * * * > 4 < < 1 , , , , 4 = 4 = = = = = ",
"+ = = 8 ; - - ; * - & & : : : , - * - & & & & & % & % % % @ % % # * & & * # # # * # $ * & * & : < < < : , , , - ; 4 = = = = @ = ",
"@ = = ; = ; = ; & = & * & & & : * - - - - % = % % % - % % = % % * & * $ # # * $ $ & & * & * * * : < : : , - - - = ; = = = @ + + ",
"X X + = = = = ; = & - : & * & & & * - & = - % & * = - = = % & % $ & * $ & & * $ * $ & * & & * $ : : : : , - - - ; = = = @ + + X ",
"    X + = = = ; ; - < 3 3 4 4 4 6 1 & & & & : , $ $ - * ; * & * : * * : * > 1 : 7 1 1 1 1 7 7 7 2 5 < < < < < 5 , , ; ; - = = + ",
"  X X + + = = ; - ; , 3 3 < , , 1 * * $ $ $ & * & * & * : : * * : > : : : : > 1 1 1 1 1 1 1 6 6 2 < 2 < , < < 3 , , - = = = + + ",
"    X + @ = % & - - , , , , ; ; > * & $ $ $ * & & * : * : * : * > * : : 1 : : 1 > : > 1 1 > > > 4 1 < < , : , , , - - - = = @ + ",
". X + + @ % % & - & & & - - - - : : & $ & & $ * : & : * : & * : : * * : & * : > : 1 : : * : > : : : , , , : : & - - - - = = @ + ",
"X X + @ @ % % % & - & - & - & - > * * & & & & : & * * & & : & * * & & & & & & & * : : & & & : : * : , , & & - & - - % = = = @ + ",
"o + + @ = % % % % & & - - - - & & : $ * & & * & : & & & & $ & & & $ $ $ $ $ $ $ * & & & : & & : & & & & : & & - - - = = = = @ = ",
"+ O O % @ % % % $ $ $ & & = % % & & & & & & : & & & & $ $ $ $ * $ & $ $ $ $ $ $ & & & & & & * * - & & & & & - - & - % = = = = @ ",
"@ @ @ % * % & % % % % % & % % % & $ & $ & & $ & & & $ $ $ $ $ $ & & & $ $ $ $ $ $ $ $ & & & * * : & & & & & , - % % = @ @ @ = @ ",
"O O O % O # % % $ $ & % & % % & & $ & $ $ & $ & $ & & & & $ $ & $ & $ $ $ $ $ $ # # $ $ * & & * & & * = & = % = = % = % = = = = ",
"O O # O # % # # $ & % & & % & = $ & $ $ $ $ & & & & $ $ $ & & & & $ & $ % $ $ $ # # $ $ & & & * - & & & & % % % = = = % = = = = ",
"# # O * % % % # % % $ & & & & & & & $ & & $ & & & & & & & & & $ $ $ % % $ # # # # # % $ & & & & & & % % % % % = % @ % = = = = - ",
"O # # # # * % % $ & * & & * & & & & : & & & & & & $ $ & & $ & $ $ & $ $ # # # # # # $ $ $ & & * & % % % % % % @ % = = % % = - % ",
"% % O % O * % * $ $ : $ & & : $ & & & $ & & & & & & $ & $ & & & % $ % $ % # # # # # $ # % & & & % % $ % # @ # % = @ @ % = = - & ",
"O % O * % * % # $ $ $ : : : : : : & $ & & $ & & $ & & & & & $ & % % $ % $ # # # # # % % $ % % $ % % % # @ # @ @ @ @ % % = - = - ",
"* O % O % O # # $ $ : $ $ : : $ $ & $ & $ $ & & & & $ & & $ $ $ # & $ $ # # # # # # $ $ $ % $ % % # # # # O @ @ @ @ % = = & - - ",
"+ O O * % % % % $ $ $ $ : : : : & & $ $ $ $ $ & $ & $ & & $ & * & # % $ % # # # # % % % $ $ % % % % # @ O # @ @ @ @ @ % % = - % "
};
