/* XPM */
static char *_b8e7fc08a2e48c782b8628d93ee8097vjsqn7GixbI325rY[] = {
/* columns rows colors chars-per-pixel */
"64 64 13 1 ",
"  c #10141F",
". c #151D28",
"X c #25562E",
"o c #A53030",
"O c #CF573C",
"+ c #468232",
"@ c #75A743",
"# c #DA863E",
"$ c #A23E8C",
"% c #C65197",
"& c #4F8FBA",
"* c #73BED3",
"= c #C7CFCC",
/* pixels */
"................................................................",
"++++++++++++++++++++++++++++++++++++++++++++++++++++++++++++++++",
"++++++++++++++++++++++++++++++++++++++++++++++++++++++++++++++++",
"++++++++++++++++++++++++++@@++++++++++++++++++++++++++++@@@@++++",
"@@++@+++++++++++++++++++@@@@@++++++++++++++@@@@++++++++@++++@+++",
"+++++@++++++++++ ++++++++@@+++++++++++++++@++++@++++++++++++++++",
"++++++++++++++  %  +++++++ +++++++++ ++++@+++  +@+++++++++++++++",
"+++++++++++++ % % % +++++ =  +++++  #  ++@++ ** ++++++++++++++++",
"++++++++++++@ $%$%$ +++  XXX= +++ # # # +++ *&&* +++++++++++++++",
"+++++++++++@@ $$$$$ ++ =X=  X +++ O#O#O ++ *&*&& +++++++++++++++",
"++++++++++@@@ $$$$$ ++ X  + X +++ OOOOO ++ *&&&* +++++++@+++++++",
"++++++@@@@++++ $$$ ++ = +++ =X ++ OOOOO +++ *&* +++++++@++++++++",
"+@+++++++++++ + X ++++ +++++ X +++ OOO X @@+ X +++++++++++++++++",
"@+++++++++++ X  X ++++++++@@ X @+++ X  X ++@ X +++++++++++++++++",
"+++++++++++++ X X +++++++++@@ X +++ X X @@@+ X + +++++++++++++++",
"+++++++++++++ X X +++++++++++ X +++ X X ++++ X  X +++++++@++++++",
"++++++++++++++ XX +++++++++++ X +++ X X ++++ X X ++++++@@@@@++++",
"++++@@@+++++++ XX ++++++++++ X +++++ X +++++ X X @++++++@@@+++++",
"+++@@@@+++++@@+ X ++++++++++ X +++++ X +++++ XX @@@@@+++++++++++",
"++++@@+++++@@@@ X ++++++++++ X +++++ X @@@@@ XX +@@+++++++++++++",
"+++++++++..............................................++++++@@@",
"++++++++.##############################################.++++@+++",
".++++++..OOOOOOOOOOOOOOOOOOOOOOOOOOOOOOOOOOOOOOOOOOOOOO..++++++.",
"=.++++.=.OOOOOOOOOOOOOOOOOOOOOOOOOOOOOOOOOOOOOOOOOOOOOO.=.++++.=",
"=.++++.=.oooooooooooooooooooooooooooooooooooooooooooooo.=.++++.=",
"=......=.##############################################.=......=",
"========.OOOOOOOOOOOOOOOOOOOOOOOOOOOOOOOOOOOOOOOOOOOOOO.========",
"========.oooooooooooooooooooooooooooooooooooooooooooooo.========",
"=......=.##############################################.=......=",
"=.++++.=.OOOOOOOOOOOOOOOOOOOOOOOOOOOOOOOOOOOOOOOOOOOOOO.=.++++.=",
"=.++++.=.oooooooooooooooooooooooooooooooooooooooooooooo.=.++++.=",
"=.++++.==.############################################.==.++@@.=",
"=.++++.==.OOOOOOOOOOOOOOOOOOOOOOOOOOOOOOOOOOOOOOOOOOOO.==.++++.=",
"=.++++.==.oooooooooooooooooooooooooooooooooooooooooooo.==.++++.=",
"=......==..##########################################..==......=",
"===========..........................................===========",
"================================================================",
"=......==......==......==......==......==......==......==......=",
"=.++++.==.++++.==.++++.==.++++.==.++++.==.++++.==.++++.==.++++.=",
"=.++++.==.++++.==.++++.==.++++.==.++++.==.++++.==.++++.==.++++.=",
"=.++++.==.++++.==.++++.==.++++.==.++++.==.++++.==.++++.==.++++.=",
"=.++++.==.++++.==.++++.==.++++.==.++++.==.@+++.==.++++.==.++++.=",
"=.+++@.==.++++.==.++++.==.++++.==.++++.==.+@@+.==.@@++.==.++++.=",
"=.+++@.==.@@++.==.++++.==.++++.==.++++.==.+@++.==.+@@+.==.++++.=",
"=.++++.==.++@@.==.++++.==.++@+.==.++++.==.++++.==.++++.==.++++.=",
"=.++++.==.++++.==.++++.==.++++.==.++++.==.++++.==.++++.==.++++.=",
"=.++++.==.++++.==.@+++.==.@+++.==.++@+.==.++++.==.++++.==.+@@+.=",
"=.+@@+.==.++++.==.+@++.==.++++.==.+@++.==.++++.==.++++.==.+@@@.=",
"=.+++@.==.++++.==.+@++.==.++++.==.++++.==.++++.==.++++.==.++++.=",
"=.++++.==.++++.==.++@+.==.++++.==.++++.==.++++.==.++++.==.++++.=",
"=.@+++.==.++++.==.++++.==.++++.==.++++.==.++++.==.++++.==.++++.=",
"=.@+++.==.++++.==.++++.==.++++.==.++++.==.++++.==.++++.==.++++.=",
"=.++++.==.++++.==.++++.==.++++.==.++++.==.++++.==.++@+.==.++++.=",
"=.++++.==.++++.==.++++.==.++++.==.++++.==.++++.==.+@@@.==.++++.=",
"=.++++.==.++++.==.++++.==.++++.==.+@@+.==.++++.==.++++.==.++++.=",
"=.++++.==.++++.==.++++.==.++++.==.@+++.==.++++.==.++++.==.++++.=",
"=.++++.==.++++.==.++++.==.++++.==.++++.==.+++@.==.++++.==.++++.=",
"=.++++.==.++++.==.++++.==.++++.==.++++.==.++++.==.++++.==.++++.=",
"=.++++.==.++++.==.++++.==.++++.==.++++.==.+@@+.==.+@@+.==.++++.=",
"=.++++.==.++++.==.++++.==.++++.==.++++.==.++++.==.++++.==.++++.=",
"=.++++.==.+@@+.==.++++.==.++++.==.++++.==.++++.==.++++.==.++++.=",
"=.++++.==.++++.==.++++.==.++++.==.++++.==.++++.==.++++.==.+@++.=",
"=.++++.==.++++.==.++++.==.++++.==.++++.==.++++.==.++++.==.@@@+.=",
"=.++++.==.++++.==.++++.==.++++.==.++++.==.++++.==.++++.==.@@@@.="
};
