/* XPM */
static char *d93d21c1c0354a27b93da7bbc9087131psFtxIdF9m0skLkI[] = {
/* columns rows colors chars-per-pixel */
"64 64 9 1 ",
"  c #10141F",
". c #151D28",
"X c #602C2C",
"o c #884B2B",
"O c #468232",
"+ c #75A743",
"@ c #A23E8C",
"# c #D7B594",
"$ c #C7CFCC",
/* pixels */
"................................................................",
"OOOOOOOOOOOOOOOOOOOOOOOOOOOOOOOOOOOOOOOOOOOOOOOOOOOOOOOOOOOOOOOO",
"OOOOOOOOOOOOOOOOOOOOOOOOOOOOOOOOOOOOOOOOOOOOOOOOOOOOOOOOOOOOOOOO",
"OOOOOOOOOOOOOOOO++++OOOOOOOOOOOOO+++OOOOOOOOOOOOOOOOOOOOOOOOOOOO",
"OOOOOOOOOOOOOOOOO++OOOOOOOOOOOOO O+OOOOOOOOOOOOOOOOOOOO+OOOOOOOO",
"OOOOOOOOOOOOOOOOOOOOOOOOOOOOOOO X OOOOOOOOOOOOOOOOOO+++++OOOOOOO",
"OOOOO++++OOOOOOOOOOOOOOOOOOOOO XoX OOOOOOOOOOOOOOOOOO++++++OOOOO",
"OOO+++++OOOOOOOOOOOOOOOOOOOOO XoooX OOOOOOOOO++OOOOOOOO++OOOOOOO",
"OO++++OOOOOOOOOOOOOOOOOOOOOO XoooooX OOOOOOOOOOOOOOOOOOOOOOOOOOO",
"OOOOOOOOOOOOOOOOOO+++++OOOO XoooooooX OOOOOOOOOOOOOOOOOOOOOOOOOO",
"OOOOOOOOOOOOOOOOO+++++OOOO XoooooooooX O++++OOOOOOOOOOOOOOOOOOOO",
"OOOOOOOOOOOOOOO  O++OOOOO XoooooooooooX OOOOOOOOOOOOOOOOOOOOOOOO",
"OOOOOOOOOOOOOO @@ OOOOOO XoooooXXXoooooX OOOOOOOOOOOOOOOOOOOOOOO",
"OOOOOOO+++OOO @@@@ OOOO XoooooX   XoooooX ++OOOOOOOOOOOOOOOO+OOO",
"OOOOOOO+++++O  @ @ OOO XXXooooX   XooooXXX OOOOOOOOOOOOOO+++++OO",
"OOOOOOOO+++O ##@@@ OOOO   ooooX   Xoooo   OOOOOOOOOOOOOOOO+++++O",
"OOOOOOOOO+OOOO @@ OOOOOOO oooooXXXooooo OOOOOOOOOOOOOOOOOOOO++OO",
"OOOOOOOOOOOOO @@@@ OOOOOO ooooooooooooo OOOOOOOOOOOOOOOOOOOOOOOO",
"OOOOOOOOOOOO @@@@@@ OOOOOO ooooooooooo OOOOOOOOOOOOOOOOOOOOOOOOO",
"OOO++OOOOOOO @@@@@@ +OOOOO ooooooooooo OOOOOOO++++++OOOOOOOOOOOO",
"OOOOO+++OOOO @@@@@@ OOOOOOO    XoX    OOOOOOOOOOO++OOOOOOOOOOOOO",
"OOOOOOOOOOOO @@@@@@ OOOOOOOOOO XoX OOOOOOOOOOOOOOOOOOOOOOOOOOOOO",
".OOOOOO..OOOO @@@@ OOOO..OOOOO ..X OOOO..OOOOOO..OOOOOO..OOOOOO.",
"$.OOOO.$$.OOOO#@@#OOOO.$$.OOOO.$$. OOO.$$.OOOO.$$.OOOO.$$.OOOO.$",
"$.OOOO.$$.OOOO#  #OOOO.$$.OOOO.$$. OOO.$$.OOOO.$$.OOOO.$$.OOOO.$",
"$......$$......$$......$$......$$......$$......$$......$$......$",
"$$$$$$$$$$$$$$$$$$$$$$$$$$$$$$$$$$$$$$$$$$$$$$$$$$$$$$$$$$$$$$$$",
"$$$$$$$$$$$$$$$$$$$$$$$$$$$$$$$$$$$$$$$$$$$$$$$$$$$$$$$$$$$$$$$$",
"$......$$......$$......$$......$$......$$......$$......$$......$",
"$.OOOO.$$.OOOO.$$.OOOO.$$.OOOO.$$.OOOO.$$.OOOO.$$.OOOO.$$.OOOO.$",
"$.OOOO.$$.OOOO.$$.OOOO.$$.OOOO.$$.O++O.$$.OOOO.$$.OOOO.$$.OOOO.$",
"$.++OO.$$.O+OO.$$.OO++.$$.OOOO.$$.+O+O.$$.OOOO.$$.OOOO.$$.OO++.$",
"$.+++O.$$.OOOO.$$.O+OO.$$.OOOO.$$.OOOO.$$.OOOO.$$.OOO+.$$.OOOO.$",
"$.OOOO.$$.OOOO.$$.OOOO.$$.OOOO.$$.OOOO.$$.OOOO.$$.O++O.$$.OOOO.$",
"$......$$......$$......$$......$$......$$......$$......$$......$",
"$$$$$$$$$$$$$$$$$$$$$$$$$$$$$$$$$$$$$$$$$$$$$$$$$$$$$$$$$$$$$$$$",
"$$$$$$$$$$$$$$$$$$$$$$$$$$$$$$$$$$$$$$$$$$$$$$$$$$$$$$$$$$$$$$$$",
"$......$$......$$......$$......$$......$$......$$......$$......$",
"$.OOOO.$$.OOOO.$$.OOOO.$$.OOOO.$$.OOOO.$$.OOOO.$$.OOOO.$$.OOOO.$",
"$.OOOO.$$.OOOO.$$.OOOO.$$.OOOO.$$.OOOO.$$.OOOO.$$.OOOO.$$.OOOO.$",
"$.OO+O.$$.OOOO.$$.OOOO.$$.OOOO.$$.OOOO.$$.OOOO.$$.OOOO.$$.OOOO.$",
"$.OO+O.$$.OOOO.$$.OOOO.$$.OOOO.$$.OOOO.$$.OOOO.$$.OOOO.$$.OOOO.$",
"$.OOO+.$$.OOOO.$$.OOOO.$$.OOOO.$$.OOOO.$$.OOOO.$$.OOOO.$$.OOOO.$",
"$.OOO+.$$.++OO.$$.OOOO.$$.OOOO.$$.OOOO.$$.OOOO.$$.OOOO.$$.OOOO.$",
"$.OOOO.$$.OO++.$$.OOOO.$$.OO+O.$$.OOOO.$$.OOOO.$$.OOOO.$$.OOOO.$",
"$.OOOO.$$.OOOO.$$.OOOO.$$.OOOO.$$.OOOO.$$.OOO+.$$.OOOO.$$.OOOO.$",
"$.OOOO.$$.OOOO.$$.+OOO.$$.+OOO.$$.OOOO.$$.OO++.$$.+OOO.$$.OOOO.$",
"$.O++O.$$.OOOO.$$.O+OO.$$.OOOO.$$.OOOO.$$.O+++.$$.++OO.$$.OOOO.$",
"$.OOO+.$$.OOOO.$$.O+OO.$$.OOOO.$$.OOOO.$$.OOOO.$$.+OOO.$$.OOO+.$",
"$.OOOO.$$.OOOO.$$.OO+O.$$.OOOO.$$.OOOO.$$.OOOO.$$.OOOO.$$.OO++.$",
"$.+OOO.$$.OOOO.$$.OOOO.$$.OOOO.$$.OOOO.$$.OOOO.$$.OOOO.$$.O+++.$",
"$.+OOO.$$.OOOO.$$.OOOO.$$.OOOO.$$.OOOO.$$.OOOO.$$.OOOO.$$.OOOO.$",
"$.OOOO.$$.OOOO.$$.OOOO.$$.OOOO.$$.OOOO.$$.OOOO.$$.OOOO.$$.OOOO.$",
"$.OOOO.$$.OOOO.$$.OOOO.$$.OOOO.$$.OOOO.$$.OOOO.$$.OOOO.$$.OOOO.$",
"$.OOOO.$$.OOOO.$$.OOOO.$$.OOOO.$$.O++O.$$.OOOO.$$.OOOO.$$.OOOO.$",
"$.OOOO.$$.OOOO.$$.+++O.$$.OOOO.$$.+OOO.$$.OOOO.$$.OOOO.$$.OOOO.$",
"$.OOOO.$$.OOOO.$$.O+++.$$.OOOO.$$.OOOO.$$.OOO+.$$.OOOO.$$.OOOO.$",
"$.OOOO.$$.OOOO.$$.OO+O.$$.OOOO.$$.OOOO.$$.OOOO.$$.OOOO.$$.OOOO.$",
"$.OOOO.$$.OOOO.$$.OOOO.$$.OOOO.$$.OOOO.$$.O++O.$$.O++O.$$.OO+O.$",
"$.OOOO.$$.OOOO.$$.OOOO.$$.OOOO.$$.OOOO.$$.OOOO.$$.OOOO.$$.++++.$",
"$.OOOO.$$.O++O.$$.OOOO.$$.OOOO.$$.OOOO.$$.OOOO.$$.OOOO.$$.O++O.$",
"$.OOOO.$$.OOOO.$$.OOOO.$$.OOOO.$$.OOOO.$$.OOOO.$$.OOOO.$$.OOOO.$",
"$.OOOO.$$.OOOO.$$.OOOO.$$.OOOO.$$.OOOO.$$.OOOO.$$.OOOO.$$.OOOO.$",
"$.OOOO.$$.OOOO.$$.OOOO.$$.OOOO.$$.OOOO.$$.OOOO.$$.OOOO.$$.OOOO.$"
};
