/* XPM */
static char *_1bad6b0649c45bafc39cd6908383078RhCqr8adCqcdrtyy[] = {
/* columns rows colors chars-per-pixel */
"64 64 12 1 ",
"  c #151D28",
". c #A53030",
"X c #BE772B",
"o c #CF573C",
"O c #468232",
"+ c #75A743",
"@ c #DE9E41",
"# c #A23E8C",
"$ c #C65197",
"% c #4F8FBA",
"& c #73BED3",
"* c #C7CFCC",
/* pixels */
"                                                                ",
"OOOOOOOOOOOOOOOOOOOOOOOOO+++OOOOOOOOOOOOOOOOOOOOOOOOOOOOOOOOOOOO",
"OOOOOO  OOOOOOOOOOO  OOO+++++OOOOOOOOOO+++OOOOOOOOOOOO   OOOOOOO",
"OOOOO oo OOOOOOOOO oo OOO+++OOOOOOO    +++++OOOOOOOOO ... OOOO++",
"+OOO ...o OOOOOOO o... OOOOOOOOOOO XXXX +++++OOOOOOOO ...o O++++",
"OOO ....o OOOOOOOO .. OOOOOOOOOOO XXXX@ OOOOOOOOOOOOO ...o OO+++",
"OOOO ..oo OOOOOOOOO  OOOOOOOOOOOOO @@X OOOOOOOOOOOOOOO o  OOOOOO",
"OOOOO    OOOOOOOOOOOOOOOOO   OOOO+O   OOOOOOOOOOO+++OOO OOOOOOOO",
"OOOOOOOOOOOOOOOO+O+OOOOOO ##$ OOOOOOOOOOOO  OOO+++OOOOOOOOOOOOOO",
"OOOOOOOOOOOOOOO+O+OOOOOO ####$ OO++OOOOOO oo OOOOOOOOOOOOOOO   O",
"OOOOOOO+++OO++OOOOOOO++O #### OO++++OOOO ...o OOOOOOOOOOO+O .oo ",
"OOOOO++++++OO  OOOOO+++++    OOOOO+++OOOO ... OOOOOOOOO++O .... ",
"OOOO+O++++OO && OOOOO++++OOOOOOOOOOOOOOOO ... OOOO++++OOOOO ... ",
"OOOOOOOOOOO &%%% OOOOOOOOOOOOO  OOOOOOOOOO   OOOOOO++++OOOOO   O",
"OOOOOOOOOO %%%% OOOOOOOOOOOOO oo OOOOOOOOOOOOOOOOOOO+OOOOOOOOOOO",
"OOOOOO  OOO    OOOOO OOOOOOO ..o OOOOOOOOOOOOOOOOOOOOOOOOOOOOOOO",
"OOOOO .. OOOOOOOOOO . OOOOO ...o OOOOOO   OOOOOOOOOOOOOOOOOOOOOO",
"OOOO ...o OOOOOOOO o.. OOOO .... OOOOO #$$ OO++OOOOOOOOOOOOOOOOO",
"OOOOO .oo OO++++OOO o. OOOOO .. OOOOO ####$ +++++OOOOOOO+++OOOOO",
"OOOOOO   OOOOOOOOOOO  OOOOOOO  OO++OO #### ++++OOOOOOOO+OO+++++O",
"OOOOOOOOO+O++OOOOOOOOOOOOOOOOOO+++++OO    OOOOOOOOO   OOOOOOOOOO",
"OOOOOOOOO++OOOOOOOOOOOOOOOOOOOOOOOOOOOOOOOOOOOOOOO .oo OOOOOOOOO",
" OOOOOO  OOOOOO  OOOOOO  OOOOOO  OOOOOO  OOOOOO   ...o   OOOOOO ",
"* OOOO ** OOOO ** OOOO ** OOOO ** OOOO ** OOOO **  ..  ** OOOO *",
"* OOOO ** OOOO ** OOOO ** OOOO ** OOOO ** OOOO ** O  O ** OOOO *",
"*      **      **      **      **      **      **      **      *",
"****************************************************************",
"****************************************************************",
"*      **      **      **      **      **      **      **      *",
"* OOOO ** OOOO ** OOOO ** OOOO ** OOOO ** OOOO ** OOOO ** OOOO *",
"* OOOO ** OOOO ** OOOO ** OOOO ** O++O ** OOOO ** OOOO ** OOOO *",
"* ++OO ** O+OO ** OO++ ** OOOO ** +O+O ** OOOO ** OOOO ** OO++ *",
"* +++O ** OOOO ** O+OO ** OOOO ** OOOO ** OOOO ** OOO+ ** OOOO *",
"* OOOO ** OOOO ** OOOO ** OOOO ** OOOO ** OOOO ** O++O ** OOOO *",
"*      **      **      **      **      **      **      **      *",
"****************************************************************",
"****************************************************************",
"*      **      **      **      **      **      **      **      *",
"* OOOO ** OOOO ** OOOO ** OOOO ** OOOO ** OOOO ** OOOO ** OOOO *",
"* OOOO ** OOOO ** OOOO ** OOOO ** OOOO ** OOOO ** OOOO ** OOOO *",
"* OO+O ** OOOO ** OOOO ** OOOO ** OOOO ** OOOO ** OOOO ** OOOO *",
"* OO+O ** OOOO ** OOOO ** OOOO ** OOOO ** OOOO ** OOOO ** OOOO *",
"* OOO+ ** OOOO ** OOOO ** OOOO ** OOOO ** OOOO ** OOOO ** OOOO *",
"* OOO+ ** ++OO ** OOOO ** OOOO ** OOOO ** OOOO ** OOOO ** OOOO *",
"* OOOO ** OO++ ** OOOO ** OO+O ** OOOO ** OOOO ** OOOO ** OOOO *",
"* OOOO ** OOOO ** OOOO ** OOOO ** OOOO ** OOO+ ** OOOO ** OOOO *",
"* OOOO ** OOOO ** +OOO ** +OOO ** OOOO ** OO++ ** +OOO ** OOOO *",
"* O++O ** OOOO ** O+OO ** OOOO ** OOOO ** O+++ ** ++OO ** OOOO *",
"* OOO+ ** OOOO ** O+OO ** OOOO ** OOOO ** OOOO ** +OOO ** OOO+ *",
"* OOOO ** OOOO ** OO+O ** OOOO ** OOOO ** OOOO ** OOOO ** OO++ *",
"* +OOO ** OOOO ** OOOO ** OOOO ** OOOO ** OOOO ** OOOO ** O+++ *",
"* +OOO ** OOOO ** OOOO ** OOOO ** OOOO ** OOOO ** OOOO ** OOOO *",
"* OOOO ** OOOO ** OOOO ** OOOO ** OOOO ** OOOO ** OOOO ** OOOO *",
"* OOOO ** OOOO ** OOOO ** OOOO ** OOOO ** OOOO ** OOOO ** OOOO *",
"* OOOO ** OOOO ** OOOO ** OOOO ** O++O ** OOOO ** OOOO ** OOOO *",
"* OOOO ** OOOO ** +++O ** OOOO ** +OOO ** OOOO ** OOOO ** OOOO *",
"* OOOO ** OOOO ** O+++ ** OOOO ** OOOO ** OOO+ ** OOOO ** OOOO *",
"* OOOO ** OOOO ** OO+O ** OOOO ** OOOO ** OOOO ** OOOO ** OOOO *",
"* OOOO ** OOOO ** OOOO ** OOOO ** OOOO ** O++O ** O++O ** OO+O *",
"* OOOO ** OOOO ** OOOO ** OOOO ** OOOO ** OOOO ** OOOO ** ++++ *",
"* OOOO ** O++O ** OOOO ** OOOO ** OOOO ** OOOO ** OOOO ** O++O *",
"* OOOO ** OOOO ** OOOO ** OOOO ** OOOO ** OOOO ** OOOO ** OOOO *",
"* OOOO ** OOOO ** OOOO ** OOOO ** OOOO ** OOOO ** OOOO ** OOOO *",
"* OOOO ** OOOO ** OOOO ** OOOO ** OOOO ** OOOO ** OOOO ** OOOO *"
};
